<svg xmlns="http://www.w3.org/2000/svg"  viewBox="0 0 512 512" width="256px" height="256px"><path fill="#e0e0e2" d="M464,408H48a32,32,0,0,1-32-32V344H496v32A32,32,0,0,1,464,408Z"/><polygon fill="#2d2d30" points="296 376 216 376 208 344 304 344 296 376"/><path fill="#57565c" d="M360,104h64a32,32,0,0,1,32,32V344H56V136a32,32,0,0,1,32-32H360Z"/><polygon fill="#83d8f4" points="240 128 80 128 80 320 432 320 432 128 272 128 240 128"/><rect width="176" height="128" x="168" y="160" fill="#d80027" rx="16" ry="16"/><polygon fill="#e0e0e2" points="232 256 232 192 296 224 232 256"/><g><path d="M496,336H464V136a40.04,40.04,0,0,0-40-40H88a40.04,40.04,0,0,0-40,40V336H16a8,8,0,0,0-8,8v32a40.04,40.04,0,0,0,40,40H464a40.04,40.04,0,0,0,40-40V344A8,8,0,0,0,496,336ZM64,136a24.032,24.032,0,0,1,24-24H424a24.032,24.032,0,0,1,24,24V336H64ZM293.75,352l-4,16h-67.5l-4-16ZM488,376a24.032,24.032,0,0,1-24,24H48a24.032,24.032,0,0,1-24-24V352H201.75l6.49,25.94A8,8,0,0,0,216,384h80a8,8,0,0,0,7.76-6.06L310.25,352H488Z"/><path d="M432,120H80a8,8,0,0,0-8,8V320a8,8,0,0,0,8,8H432a8,8,0,0,0,8-8V128A8,8,0,0,0,432,120Zm-8,192H88V136H424Z"/><path d="M88,360H40a8,8,0,0,0,0,16H88a8,8,0,0,0,0-16Z"/><path d="M120,360h-8a8,8,0,0,0,0,16h8a8,8,0,0,0,0-16Z"/><path d="M227.794,262.805a8,8,0,0,0,7.784.35l64-32a8,8,0,0,0,0-14.31l-64-32A8,8,0,0,0,224,192v64A8,8,0,0,0,227.794,262.805ZM240,204.944,278.111,224,240,243.056Z"/><path d="M184,296H328a24.028,24.028,0,0,0,24-24V176a24.028,24.028,0,0,0-24-24H184a24.028,24.028,0,0,0-24,24v96A24.028,24.028,0,0,0,184,296Zm-8-120a8.009,8.009,0,0,1,8-8H328a8.009,8.009,0,0,1,8,8v96a8.009,8.009,0,0,1-8,8H184a8.009,8.009,0,0,1-8-8Z"/></g></svg>