<svg xmlns="http://www.w3.org/2000/svg"  viewBox="0 0 512 512" width="128pt" height="128pt"><path d="M 311.71289 5.0019531 A 6 6 0 0 0 307.36328 7.078125 L 283.29297 34.978516 A 228.972 228.972 0 0 0 218.86523 36.644531 L 193.13477 9.8203125 A 6 6 0 0 0 186.40039 8.4765625 L 119.80078 37.615234 A 6 6 0 0 0 116.22266 43.552734 L 118.95312 80.722656 A 205.653 205.653 0 0 0 74.488281 127.40625 L 37.345703 126.3125 A 6.006 6.006 0 0 0 31.570312 130.15039 L 5.4003906 197.94141 A 6 6 0 0 0 7.078125 204.64258 L 34.978516 228.7168 A 229.013 229.013 0 0 0 36.642578 293.13477 L 9.8203125 318.86523 A 6 6 0 0 0 8.4765625 325.59961 L 37.617188 392.19922 A 6.01 6.01 0 0 0 43.554688 395.7793 L 80.726562 393.04688 A 205.649 205.649 0 0 0 127.41016 437.51172 L 126.31641 474.6543 A 6 6 0 0 0 130.1543 480.42969 L 197.94531 506.59961 A 6 6 0 0 0 204.64453 504.92188 L 228.71875 477.02148 A 229.04 229.04 0 0 0 293.13477 475.35547 L 318.86328 502.18359 A 6 6 0 0 0 325.59961 503.52734 L 392.19922 474.38867 A 6 6 0 0 0 395.77734 468.45117 L 393.04492 431.28125 A 205.653 205.653 0 0 0 437.50977 384.59766 L 474.6543 385.69141 A 5.988 5.988 0 0 0 480.42969 381.85352 L 506.59961 314.05859 A 6 6 0 0 0 504.92188 307.35742 L 477.02344 283.2793 A 228.937 228.937 0 0 0 475.35742 218.86328 L 502.18555 193.13477 A 6 6 0 0 0 503.5293 186.39844 L 474.39258 119.79883 A 6.006 6.006 0 0 0 468.45508 116.2207 L 431.2832 118.95312 A 205.673 205.673 0 0 0 384.59961 74.486328 L 385.69141 37.341797 A 6 6 0 0 0 381.85352 31.566406 L 314.06445 5.4003906 A 6 6 0 0 0 311.71289 5.0019531 z M 313.6875 18.123047 L 373.57227 41.236328 L 372.50977 77.429688 A 6 6 0 0 0 375.17773 82.599609 A 193.82 193.82 0 0 1 423.63281 128.74609 A 6.015 6.015 0 0 0 428.89648 131.16211 L 465.0957 128.50195 L 490.85156 187.37695 L 464.73633 212.42188 A 6 6 0 0 0 462.98828 217.83203 A 217.066 217.066 0 0 1 464.72461 284.96094 A 6 6 0 0 0 466.75391 290.27539 L 493.88086 313.67969 L 470.76758 373.56641 L 434.57422 372.5 A 6.09 6.09 0 0 0 429.4043 375.16992 A 193.787 193.787 0 0 1 383.25781 423.62305 A 6 6 0 0 0 380.8418 428.88867 L 383.50391 465.08984 L 324.62891 490.84766 L 299.58203 464.73047 A 6 6 0 0 0 294.17188 462.98242 A 217.1 217.1 0 0 1 227.04492 464.7168 A 6.011 6.011 0 0 0 221.72852 466.74805 L 198.32227 493.87695 L 138.4375 470.76367 L 139.50195 434.57031 A 6 6 0 0 0 136.83203 429.40039 A 193.791 193.791 0 0 1 88.376953 383.25391 A 6.02 6.02 0 0 0 83.113281 380.83789 L 46.910156 383.5 L 21.148438 324.62891 L 47.265625 299.58203 A 6.006 6.006 0 0 0 49.013672 294.17188 A 217.006 217.006 0 0 1 47.279297 227.04492 A 6 6 0 0 0 45.248047 221.72852 L 18.119141 198.32031 L 41.232422 138.43359 L 77.425781 139.5 A 6 6 0 0 0 82.595703 136.83008 A 193.787 193.787 0 0 1 128.74219 88.376953 A 6 6 0 0 0 131.1582 83.111328 L 128.49609 46.910156 L 187.37109 21.152344 L 212.41797 47.269531 A 5.994 5.994 0 0 0 217.82812 49.017578 A 217.132 217.132 0 0 1 284.9668 47.28125 A 6.009 6.009 0 0 0 290.28125 45.251953 L 313.6875 18.123047 z M 256 73 C 155.094 73 73 155.093 73 256 C 73 356.907 155.094 439 256 439 C 356.906 439 439 356.907 439 256 C 439 155.093 356.906 73 256 73 z M 256 85 C 350.29 85 427 161.71 427 256 C 427 350.29 350.29 427 256 427 C 161.71 427 85 350.29 85 256 C 85 161.71 161.71 85 256 85 z M 348.6875 133.60156 A 12.932 12.932 0 0 0 343.69922 134.47461 L 321.26953 143.23242 A 12.787 12.787 0 0 0 314.33789 160.64258 L 316.56641 165.32617 L 316.12305 165.51562 C 307.61305 167.26063 301.67209 167.00473 292.87109 164.55273 L 270.46289 158.31055 A 35.854 35.854 0 0 0 250.0625 158.63672 L 228.43359 165.41797 A 35.741 35.741 0 0 0 216.60547 171.75586 A 46.37 46.37 0 0 0 199.38477 170.07227 L 200.74414 167.50586 A 12.791 12.791 0 0 0 196.0293 150.57422 L 175.42969 138.15234 A 12.9 12.9 0 0 0 157.35938 143.15625 L 99.300781 253.33789 A 12.714 12.714 0 0 0 104.40039 270.45898 L 125.12305 282.03516 A 12.841 12.841 0 0 0 131.40039 283.68164 A 13.02 13.02 0 0 0 135.08203 283.14453 A 12.756 12.756 0 0 0 142.80859 276.83984 L 144.9082 272.87695 L 151.96484 278.70703 L 138.98242 296.56641 A 20.222 20.222 0 0 0 155.34375 328.68555 A 20.491 20.491 0 0 0 158.61719 328.41602 A 20.078 20.078 0 0 0 166.80078 341.5 A 20.177 20.177 0 0 0 178.5625 345.26172 A 20.6 20.6 0 0 0 181.84375 344.99219 A 20.2 20.2 0 0 0 201.7832 361.8457 A 20.506 20.506 0 0 0 205.05859 361.57617 A 20.072 20.072 0 0 0 213.23828 374.6582 A 20.367 20.367 0 0 0 241.47461 370.07031 L 245.47461 364.56055 L 253.04883 370.56055 A 21.827 21.827 0 0 0 283.51367 368.26172 A 21.336 21.336 0 0 0 288.57617 357.22656 A 21.8 21.8 0 0 0 310.92578 350.62695 A 21.337 21.337 0 0 0 315.98828 339.58984 A 21.794 21.794 0 0 0 338.33789 332.99023 A 21.352 21.352 0 0 0 343.26562 322.72852 A 21.9 21.9 0 0 0 367.33203 316.60742 L 367.58984 316.30664 A 21.005 21.005 0 0 0 365.39062 286.50781 L 360.90234 282.66797 A 45.881 45.881 0 0 0 369.21094 275.32812 A 12.83 12.83 0 0 0 379.4375 280.41016 A 12.979 12.979 0 0 0 384.56445 279.34961 L 406.39258 269.97656 A 12.786 12.786 0 0 0 412.93945 252.75781 L 360.03906 140.94141 A 12.932 12.932 0 0 0 348.6875 133.60156 z M 348.40039 145.5918 A 0.882 0.882 0 0 1 349.20117 146.07617 L 402.10156 257.89258 A 0.74 0.74 0 0 1 402.12109 258.48242 L 402.12305 258.48633 A 0.818 0.818 0 0 1 401.66602 258.95312 L 379.83789 268.32617 A 0.9 0.9 0 0 1 378.67578 267.91797 L 325.17578 155.48828 A 0.733 0.733 0 0 1 325.1543 154.88281 A 0.825 0.825 0 0 1 325.63672 154.41406 L 348.06836 145.6543 A 0.926 0.926 0 0 1 348.40039 145.5918 z M 168.77344 148.29492 A 0.9 0.9 0 0 1 169.24023 148.42773 L 189.8418 160.84961 A 0.778 0.778 0 0 1 190.15039 161.88672 L 132.20508 271.2207 A 0.844 0.844 0 0 1 131.6875 271.63672 A 0.909 0.909 0 0 1 130.97656 271.55859 L 110.25391 259.98242 A 0.777 0.777 0 0 1 109.91797 258.93164 L 167.98242 148.75195 A 0.845 0.845 0 0 1 168.51758 148.33008 A 0.963 0.963 0 0 1 168.77344 148.29492 z M 260.70898 168.99609 A 23.882 23.882 0 0 1 267.24219 169.87695 L 289.65234 176.11914 C 300.48434 179.13714 308.48392 179.41948 319.16992 177.14648 L 321.72852 176.18164 L 363.24023 263.41992 A 33.84 33.84 0 0 1 351.34961 274.48633 L 334.54883 260.11523 L 275.69922 202.45312 A 32.951 32.951 0 0 0 261.54297 194.28125 L 251.40625 191.44727 A 6.382 6.382 0 0 0 249.76758 191.22656 C 242.81258 191.25456 236.88422 195.12623 233.07422 202.11523 A 33.691 33.691 0 0 0 229.66602 211.70117 L 229.50977 213.33594 A 21.661 21.661 0 0 1 219.76953 229.33594 A 22.8 22.8 0 0 1 201.63086 232.18555 L 206.41602 217.71094 C 207.71602 213.78194 209.17667 209.84763 210.76367 206.01562 L 217.35156 190.11523 A 23.561 23.561 0 0 1 232.02734 176.875 L 253.65625 170.0957 A 23.882 23.882 0 0 1 260.70898 168.99609 z M 204.82812 181.91992 A 42.138 42.138 0 0 1 207.92383 182.12891 A 35.819 35.819 0 0 0 206.28711 185.4668 L 199.67969 201.42578 C 197.97969 205.52578 196.41248 209.74127 195.02148 213.94727 L 188.42773 233.89844 A 6 6 0 0 0 191.70117 241.26953 L 193.12109 241.89844 A 34.684 34.684 0 0 0 226.38086 239.35352 A 33.612 33.612 0 0 0 241.45508 214.49609 C 241.48608 214.17309 241.51406 213.84658 241.53906 213.51758 C 241.84906 212.11058 243.87986 203.95934 249.13086 203.27734 L 258.3125 205.84375 A 20.929 20.929 0 0 1 267.30273 211.03125 L 326.59375 269.10742 L 357.59375 295.63281 A 9.006 9.006 0 0 1 358.54492 308.43164 L 358.54883 308.42188 L 358.29102 308.72266 A 9.834 9.834 0 0 1 344.52539 309.76953 L 318.47852 287.46094 A 6.0001338 6.0001338 0 0 0 310.66797 296.57031 L 328.33008 311.69922 A 9.454 9.454 0 0 1 329.29102 325.09961 A 9.79 9.79 0 0 1 315.58203 326.08789 L 293.36523 307.06445 A 6 6 0 0 0 284.78711 307.86523 A 6.168 6.168 0 0 0 285.75195 316.34766 L 300.88477 329.30078 A 9.456 9.456 0 0 1 301.88477 342.73633 A 9.789 9.789 0 0 1 288.17773 343.72266 L 273.03906 330.76953 A 6.167 6.167 0 0 0 264.51172 331.12305 A 6 6 0 0 0 265.04492 339.72266 L 273.47266 346.9375 A 9.458 9.458 0 0 1 274.47266 360.375 A 9.791 9.791 0 0 1 260.76367 361.36133 C 260.70467 361.31233 260.64789 361.2628 260.58789 361.2168 L 250.91211 353.55469 A 20.147 20.147 0 0 0 232.61133 329.95312 A 20.155 20.155 0 0 0 214.24609 306.69336 A 20.2 20.2 0 0 0 196.67969 283.49414 A 20.523 20.523 0 0 0 195.92188 271.6543 A 19.19 19.19 0 0 0 192.25781 265.5332 A 20.365 20.365 0 0 0 160.51758 266.94922 L 159.03516 268.98828 L 150.64844 262.05664 L 192.32422 183.41406 A 42.138 42.138 0 0 1 204.82812 181.91992 z M 254.92578 223.75195 A 6 6 0 0 0 250.75781 234.0293 L 253.79492 237.06641 A 6 6 0 0 0 262.2793 228.58008 L 259.24219 225.54297 A 6 6 0 0 0 254.92578 223.75195 z M 272.79883 241.67383 A 6.0001546 6.0001546 0 0 0 268.64453 251.91406 L 290.56641 273.83984 A 6.0005082 6.0005082 0 0 0 299.05469 265.35352 L 277.13086 243.42969 A 6.0001546 6.0001546 0 0 0 272.79883 241.67383 z M 176.61523 270.5918 A 8.328 8.328 0 0 1 181.76758 272.12305 A 8.224 8.224 0 0 1 183.64062 283.65039 L 162.09961 313.28516 A 8.323 8.323 0 0 1 150.5625 315.16016 A 8.231 8.231 0 0 1 148.68945 303.62305 L 170.22266 274 A 8.328 8.328 0 0 1 176.61523 270.5918 z M 193.90039 295.33203 A 8.323 8.323 0 0 1 199.04688 296.86133 A 8.178 8.178 0 0 1 202.38867 302.24023 A 8.283 8.283 0 0 1 200.8418 308.42578 L 185.33984 329.72461 L 185.37891 329.72461 L 185.30859 329.84961 A 8.315 8.315 0 0 1 173.77148 331.72852 A 8.218 8.218 0 0 1 171.89648 320.21289 L 187.50977 298.73633 A 8.323 8.323 0 0 1 193.90039 295.33203 z M 212.26953 318.5957 A 8.334 8.334 0 0 1 217.41406 320.125 A 8.223 8.223 0 0 1 219.28516 331.65234 L 208.63086 346.31445 L 208.53906 346.43945 A 8.322 8.322 0 0 1 197 348.31836 A 8.229 8.229 0 0 1 195.12305 336.7832 L 205.86719 322 A 8.334 8.334 0 0 1 212.26953 318.5957 z M 230.62695 341.86133 A 8.33 8.33 0 0 1 235.77734 343.39258 A 8.222 8.222 0 0 1 237.65039 354.91992 L 237.64844 354.91406 L 231.76562 363.01562 A 8.337 8.337 0 0 1 220.21094 364.89258 A 8.213 8.213 0 0 1 218.33789 353.37891 L 224.23047 345.26953 A 8.33 8.33 0 0 1 230.62695 341.86133 z"/></svg>