<svg xmlns="http://www.w3.org/2000/svg"  viewBox="0 0 50 50" width="250px" height="250px"><path d="M 44.5 0 C 41.472656 0 39 2.472656 39 5.5 C 39 8.527344 41.472656 11 44.5 11 C 47.527344 11 50 8.527344 50 5.5 C 50 2.472656 47.527344 0 44.5 0 Z M 34.1875 1.34375 C 34.15625 1.351563 34.125 1.363281 34.09375 1.375 C 33.726563 1.453125 33.433594 1.726563 33.332031 2.089844 C 33.234375 2.453125 33.347656 2.839844 33.625 3.09375 L 35.59375 5 L 24 5 C 17.390625 5 13.082031 7.378906 10.5 10.0625 C 9.207031 11.402344 8.328125 12.808594 7.78125 14.03125 C 7.234375 15.253906 7 16.230469 7 17 C 7 17.019531 7 17.042969 7 17.0625 C 3.066406 17.5625 0 20.933594 0 25 C 0 29.066406 3.066406 32.4375 7 32.9375 C 7 32.957031 7 32.980469 7 33 C 7 33.769531 7.234375 34.746094 7.78125 35.96875 C 8.328125 37.191406 9.207031 38.597656 10.5 39.9375 C 13.082031 42.621094 17.390625 45 24 45 L 35.59375 45 L 33.625 46.90625 C 33.324219 47.140625 33.179688 47.527344 33.257813 47.902344 C 33.335938 48.273438 33.621094 48.574219 33.992188 48.667969 C 34.359375 48.761719 34.753906 48.636719 35 48.34375 L 38.6875 44.78125 C 39.082031 44.398438 39.09375 43.773438 38.71875 43.375 L 35.15625 39.6875 C 34.925781 39.4375 34.585938 39.316406 34.25 39.375 C 33.886719 39.441406 33.585938 39.703125 33.476563 40.058594 C 33.363281 40.414063 33.457031 40.800781 33.71875 41.0625 L 35.59375 43 L 24 43 C 17.859375 43 14.167969 40.878906 11.9375 38.5625 C 10.824219 37.402344 10.085938 36.183594 9.625 35.15625 C 9.164063 34.128906 9 33.230469 9 33 C 9 32.980469 9 32.957031 9 32.9375 C 11.902344 32.570313 14.332031 30.621094 15.40625 28 C 17.53125 28.035156 18.835938 28.316406 19.6875 28.6875 C 20.59375 29.082031 21.089844 29.582031 21.75 30.21875 C 22.410156 30.855469 23.242188 31.625 24.59375 32.15625 C 25.945313 32.6875 27.753906 33 30.53125 33 L 35.59375 33 L 33.71875 34.9375 C 33.425781 35.183594 33.300781 35.578125 33.394531 35.945313 C 33.488281 36.316406 33.789063 36.601563 34.160156 36.679688 C 34.535156 36.757813 34.921875 36.613281 35.15625 36.3125 L 38.71875 32.625 C 39.09375 32.226563 39.082031 31.601563 38.6875 31.21875 L 35 27.65625 C 34.8125 27.457031 34.554688 27.347656 34.28125 27.34375 C 34.21875 27.347656 34.15625 27.359375 34.09375 27.375 C 33.726563 27.453125 33.433594 27.726563 33.332031 28.089844 C 33.234375 28.453125 33.347656 28.839844 33.625 29.09375 L 35.59375 31 L 30.53125 31 C 27.910156 31 26.339844 30.6875 25.3125 30.28125 C 24.285156 29.875 23.761719 29.394531 23.125 28.78125 C 22.488281 28.167969 21.714844 27.417969 20.46875 26.875 C 19.390625 26.40625 17.953125 26.105469 15.9375 26.03125 C 15.980469 25.691406 16 25.351563 16 25 C 16 24.988281 16 24.980469 16 24.96875 C 17.980469 24.890625 19.402344 24.589844 20.46875 24.125 C 21.714844 23.582031 22.488281 22.832031 23.125 22.21875 C 23.761719 21.605469 24.285156 21.125 25.3125 20.71875 C 26.339844 20.3125 27.910156 20 30.53125 20 L 35.59375 20 L 33.71875 21.9375 C 33.425781 22.183594 33.300781 22.578125 33.394531 22.945313 C 33.488281 23.316406 33.789063 23.601563 34.160156 23.679688 C 34.535156 23.757813 34.921875 23.613281 35.15625 23.3125 L 38.71875 19.625 C 39.09375 19.226563 39.082031 18.601563 38.6875 18.21875 L 35 14.65625 C 34.8125 14.457031 34.554688 14.347656 34.28125 14.34375 C 34.21875 14.347656 34.15625 14.359375 34.09375 14.375 C 33.726563 14.453125 33.433594 14.726563 33.332031 15.089844 C 33.234375 15.453125 33.347656 15.839844 33.625 16.09375 L 35.59375 18 L 30.53125 18 C 27.753906 18 25.945313 18.3125 24.59375 18.84375 C 23.242188 19.375 22.410156 20.144531 21.75 20.78125 C 21.089844 21.417969 20.59375 21.917969 19.6875 22.3125 C 18.878906 22.664063 17.652344 22.914063 15.71875 22.96875 C 14.894531 19.863281 12.25 17.472656 9 17.0625 C 9 17.042969 9 17.019531 9 17 C 9 16.769531 9.164063 15.871094 9.625 14.84375 C 10.085938 13.816406 10.824219 12.597656 11.9375 11.4375 C 14.167969 9.121094 17.859375 7 24 7 L 35.59375 7 L 33.71875 8.9375 C 33.425781 9.183594 33.300781 9.578125 33.394531 9.945313 C 33.488281 10.316406 33.789063 10.601563 34.160156 10.679688 C 34.535156 10.757813 34.921875 10.613281 35.15625 10.3125 L 38.71875 6.625 C 39.09375 6.226563 39.082031 5.601563 38.6875 5.21875 L 35 1.65625 C 34.8125 1.457031 34.554688 1.347656 34.28125 1.34375 C 34.25 1.34375 34.21875 1.34375 34.1875 1.34375 Z M 44.5 2 C 46.445313 2 48 3.554688 48 5.5 C 48 7.445313 46.445313 9 44.5 9 C 42.554688 9 41 7.445313 41 5.5 C 41 3.554688 42.554688 2 44.5 2 Z M 44.5 13 C 41.472656 13 39 15.472656 39 18.5 C 39 21.527344 41.472656 24 44.5 24 C 47.527344 24 50 21.527344 50 18.5 C 50 15.472656 47.527344 13 44.5 13 Z M 44.5 15 C 46.445313 15 48 16.554688 48 18.5 C 48 20.445313 46.445313 22 44.5 22 C 42.554688 22 41 20.445313 41 18.5 C 41 16.554688 42.554688 15 44.5 15 Z M 8 19 C 11.324219 19 14 21.675781 14 25 C 14 28.324219 11.324219 31 8 31 C 4.675781 31 2 28.324219 2 25 C 2 21.675781 4.675781 19 8 19 Z M 44.5 26 C 41.472656 26 39 28.472656 39 31.5 C 39 34.527344 41.472656 37 44.5 37 C 47.527344 37 50 34.527344 50 31.5 C 50 28.472656 47.527344 26 44.5 26 Z M 44.5 28 C 46.445313 28 48 29.554688 48 31.5 C 48 33.445313 46.445313 35 44.5 35 C 42.554688 35 41 33.445313 41 31.5 C 41 29.554688 42.554688 28 44.5 28 Z M 44.5 39 C 41.472656 39 39 41.472656 39 44.5 C 39 47.527344 41.472656 50 44.5 50 C 47.527344 50 50 47.527344 50 44.5 C 50 41.472656 47.527344 39 44.5 39 Z M 44.5 41 C 46.445313 41 48 42.554688 48 44.5 C 48 46.445313 46.445313 48 44.5 48 C 42.554688 48 41 46.445313 41 44.5 C 41 42.554688 42.554688 41 44.5 41 Z"/></svg>