<svg xmlns="http://www.w3.org/2000/svg" width="280" height="188.72" viewBox="0 0 126.799 44.519"><defs><style>.a{fill:#072343;}.b{fill:#e0041c;}</style></defs><g transform="translate(-104.896 -26.991)"><g transform="translate(104.896 26.991)"><rect class="a" width="13.775" height="30.049" transform="translate(47.593 14.47)"/><path class="a" d="M157.693,26.991H140.809c-2.529,0-18.7.233-21.406.7a24.006,24.006,0,0,0-7.386,2.5,15.863,15.863,0,0,0-5.49,4.858,11.146,11.146,0,0,0-1.63,3.527h9.436v-.034h34.488Z" transform="translate(-104.896 -26.991)"/></g><path class="b" d="M325.909,38.57a11.132,11.132,0,0,0-1.63-3.527,15.863,15.863,0,0,0-5.49-4.858,24,24,0,0,0-7.386-2.5,46.269,46.269,0,0,0-7.852-.7H256.13L247.213,38.57h16.615V71.51H277.6V38.57Z" transform="translate(-94.747)"/><path class="a" d="M393.769,71.612c0-.511-.02-1.005-.057-1.487H379.051a4.858,4.858,0,0,1,.544,2.352,4.1,4.1,0,0,1-2.2,3.66,10.215,10.215,0,0,1-5.39,1.331H348.345v10.98h19.871C374.522,88.536,393.769,88.6,393.769,71.612Z" transform="translate(-162.074 -28.716)"/></g></svg>